<svg width="32" height="54" viewBox="0 0 32 54" fill="none" xmlns="http://www.w3.org/2000/svg">
<path d="M7.57843 52.5784C6.01633 54.1405 3.48367 54.1405 1.92157 52.5784C0.359476 51.0163 0.359476 48.4837 1.92157 46.9216L7.57843 52.5784ZM27.5 27L30.3284 24.1716C31.8905 25.7337 31.8905 28.2663 30.3284 29.8284L27.5 27ZM1.92157 7.07843C0.359476 5.51633 0.359476 2.98367 1.92157 1.42157C3.48367 -0.140524 6.01633 -0.140524 7.57843 1.42157L1.92157 7.07843ZM1.92157 46.9216L24.6716 24.1716L30.3284 29.8284L7.57843 52.5784L1.92157 46.9216ZM24.6716 29.8284L1.92157 7.07843L7.57843 1.42157L30.3284 24.1716L24.6716 29.8284Z" fill="#052633"/>
</svg>
