<svg width="32" height="54" viewBox="0 0 32 54" fill="none" xmlns="http://www.w3.org/2000/svg">
<path d="M24.4216 52.5784C25.9837 54.1405 28.5163 54.1405 30.0784 52.5784C31.6405 51.0163 31.6405 48.4837 30.0784 46.9216L24.4216 52.5784ZM4.5 27L1.67157 24.1716C0.109476 25.7337 0.109476 28.2663 1.67157 29.8284L4.5 27ZM30.0784 7.07843C31.6405 5.51633 31.6405 2.98367 30.0784 1.42157C28.5163 -0.140524 25.9837 -0.140524 24.4216 1.42157L30.0784 7.07843ZM30.0784 46.9216L7.32843 24.1716L1.67157 29.8284L24.4216 52.5784L30.0784 46.9216ZM7.32843 29.8284L30.0784 7.07843L24.4216 1.42157L1.67157 24.1716L7.32843 29.8284Z" fill="#052633"/>
</svg>
