<?xml version="1.0" encoding="UTF-8" standalone="no"?>
<svg
   width="600"
   height="337.5"
   viewBox="0 0 600 337.5"
   fill="none"
   version="1.1"
   id="svg69"
   sodipodi:docname="rectangle_options_contract.svg"
   inkscape:version="1.1.1 (c3084ef, 2021-09-22)"
   xmlns:inkscape="http://www.inkscape.org/namespaces/inkscape"
   xmlns:sodipodi="http://sodipodi.sourceforge.net/DTD/sodipodi-0.dtd"
   xmlns="http://www.w3.org/2000/svg"
   xmlns:svg="http://www.w3.org/2000/svg">
  <sodipodi:namedview
     id="namedview71"
     pagecolor="#ffffff"
     bordercolor="#999999"
     borderopacity="1"
     inkscape:pageshadow="0"
     inkscape:pageopacity="0"
     inkscape:pagecheckerboard="0"
     showgrid="false"
     inkscape:zoom="0.71002005"
     inkscape:cx="272.52752"
     inkscape:cy="293.65368"
     inkscape:window-width="1440"
     inkscape:window-height="847"
     inkscape:window-x="0"
     inkscape:window-y="205"
     inkscape:window-maximized="1"
     inkscape:current-layer="g62" />
  <rect
     width="600"
     height="338.16821"
     fill="#e5e5e5"
     id="rect2"
     x="0"
     y="0"
     style="stroke-width:1.04444" />
  <g
     clip-path="url(#clip0)"
     id="g62">
    <rect
       width="1440"
       height="4380"
       fill="#ffffff"
       id="rect4"
       x="-109.85889"
       y="-676.82251" />
    <rect
       opacity="0.4"
       width="600"
       height="338.16821"
       fill="#69ddea"
       id="rect8"
       x="0"
       y="0"
       style="stroke-width:1.04445" />
    <path
       d="m 429.933,196.779 -156.618,91.538 c -0.548,0.319 -1.2,0.408 -1.814,0.247 -0.614,-0.161 -1.139,-0.558 -1.46,-1.106 L 169.326,115.137 c -0.32,-0.548 -0.409,-1.2 -0.248,-1.814 0.161,-0.614 0.559,-1.139 1.107,-1.459 L 326.802,20.326 c 0.549,-0.3195 1.201,-0.4086 1.815,-0.2476 0.614,0.1609 1.138,0.5588 1.459,1.1062 L 430.792,193.505 c 0.319,0.549 0.408,1.201 0.247,1.815 -0.161,0.614 -0.559,1.138 -1.106,1.459 z"
       fill="#ffffff"
       stroke="#0f0f24"
       id="path10" />
    <path
       d="m 429.933,196.779 -156.618,91.538 c -0.548,0.319 -1.2,0.408 -1.814,0.247 -0.614,-0.161 -1.139,-0.558 -1.46,-1.106 L 169.326,115.137 c -0.32,-0.548 -0.409,-1.2 -0.248,-1.814 0.161,-0.614 0.559,-1.139 1.107,-1.459 L 326.802,20.326 c 0.549,-0.3195 1.201,-0.4086 1.815,-0.2476 0.614,0.1609 1.138,0.5588 1.459,1.1062 L 430.792,193.505 c 0.319,0.549 0.408,1.201 0.247,1.815 -0.161,0.614 -0.559,1.138 -1.106,1.459 z M 170.668,112.69 c -0.329,0.192 -0.568,0.507 -0.664,0.876 -0.097,0.368 -0.043,0.759 0.149,1.088 l 100.715,172.321 c 0.192,0.329 0.507,0.567 0.876,0.664 0.368,0.096 0.759,0.043 1.088,-0.149 L 429.45,195.953 c 0.329,-0.193 0.567,-0.508 0.664,-0.876 0.096,-0.368 0.043,-0.76 -0.149,-1.089 L 329.25,21.6676 c -0.193,-0.3284 -0.508,-0.5672 -0.876,-0.6637 -0.368,-0.0966 -0.76,-0.0432 -1.089,0.1486 z"
       fill="#0f0f24"
       stroke="#0f0f24"
       id="path12" />
    <path
       d="m 271.342,129.851 -38.845,22.703 c -0.548,0.32 -1.2,0.409 -1.814,0.248 -0.614,-0.161 -1.139,-0.559 -1.459,-1.107 L 206.52,112.851 c -0.319,-0.548 -0.408,-1.201 -0.247,-1.815 0.161,-0.613 0.559,-1.138 1.106,-1.459 l 38.844,-22.7031 c 0.549,-0.3196 1.201,-0.4086 1.815,-0.2477 0.614,0.161 1.138,0.5588 1.459,1.1063 L 272.2,126.577 c 0.32,0.548 0.409,1.201 0.248,1.814 -0.161,0.614 -0.559,1.139 -1.106,1.46 z m -63.48,-19.447 c -0.328,0.192 -0.567,0.507 -0.664,0.875 -0.096,0.368 -0.043,0.76 0.149,1.089 l 22.703,38.844 c 0.193,0.329 0.507,0.568 0.876,0.664 0.368,0.097 0.759,0.043 1.088,-0.148 l 38.845,-22.704 c 0.328,-0.192 0.567,-0.507 0.664,-0.875 0.096,-0.369 0.043,-0.76 -0.149,-1.089 L 248.671,88.2155 c -0.193,-0.3285 -0.508,-0.5672 -0.876,-0.6638 -0.368,-0.0965 -0.76,-0.0431 -1.088,0.1487 z"
       fill="#f2f2f2"
       stroke="#0f0f24"
       id="path14" />
    <path
       d="m 262.962,141.124 -38.845,22.703 c -0.493,0.288 -1.08,0.368 -1.633,0.223 -0.552,-0.145 -1.024,-0.503 -1.313,-0.995 L 198.468,124.21 c -0.288,-0.493 -0.368,-1.081 -0.223,-1.633 0.145,-0.552 0.503,-1.025 0.995,-1.313 l 38.845,-22.7036 c 0.493,-0.2876 1.081,-0.3678 1.633,-0.2229 0.552,0.1449 1.025,0.5029 1.313,0.9956 l 22.704,38.8449 c 0.287,0.493 0.367,1.08 0.223,1.633 -0.145,0.552 -0.503,1.024 -0.996,1.313 z"
       fill="#5b5fd4"
       stroke="#0f0f24"
       id="path16" />
    <path
       d="m 356.72,111.828 -121.492,71.008 c -0.494,0.288 -1.081,0.369 -1.634,0.224 -0.552,-0.145 -1.025,-0.503 -1.313,-0.997 -0.288,-0.493 -0.369,-1.08 -0.224,-1.633 0.145,-0.552 0.504,-1.025 0.997,-1.313 l 121.492,-71.008 c 0.244,-0.143 0.514,-0.236 0.795,-0.274 0.28,-0.039 0.565,-0.022 0.839,0.05 0.273,0.072 0.53,0.197 0.755,0.368 0.226,0.171 0.415,0.385 0.558,0.629 0.142,0.244 0.236,0.514 0.274,0.794 0.038,0.28 0.021,0.565 -0.05,0.839 -0.072,0.274 -0.197,0.53 -0.368,0.756 -0.171,0.225 -0.385,0.414 -0.629,0.557 z"
       fill="#dddddd"
       stroke="#0f0f24"
       id="path18" />
    <path
       d="m 334.867,141.787 -92.152,53.86 c -0.244,0.142 -0.514,0.236 -0.794,0.274 -0.281,0.038 -0.566,0.021 -0.839,-0.05 -0.553,-0.145 -1.025,-0.504 -1.314,-0.997 -0.288,-0.493 -0.368,-1.081 -0.223,-1.633 0.144,-0.553 0.503,-1.025 0.996,-1.313 l 92.153,-53.86 c 0.244,-0.143 0.514,-0.236 0.794,-0.275 0.28,-0.038 0.565,-0.021 0.839,0.051 0.273,0.072 0.53,0.197 0.756,0.368 0.225,0.171 0.414,0.384 0.557,0.628 0.143,0.245 0.236,0.515 0.274,0.795 0.039,0.28 0.022,0.565 -0.05,0.839 -0.072,0.273 -0.197,0.53 -0.368,0.755 -0.171,0.226 -0.385,0.415 -0.629,0.558 z"
       fill="#dddddd"
       stroke="#0f0f24"
       id="path20" />
    <path
       d="m 328.773,64.9606 -53.721,31.3981 c -0.493,0.2883 -1.08,0.3688 -1.633,0.2239 -0.553,-0.1449 -1.025,-0.5034 -1.313,-0.9966 -0.288,-0.4932 -0.369,-1.0807 -0.224,-1.6333 0.145,-0.5525 0.503,-1.0249 0.997,-1.3131 L 326.6,61.2415 c 0.493,-0.2883 1.08,-0.3688 1.633,-0.2239 0.274,0.0718 0.53,0.1967 0.756,0.3677 0.225,0.171 0.414,0.3847 0.557,0.6289 0.143,0.2442 0.236,0.5141 0.275,0.7944 0.038,0.2802 0.021,0.5652 -0.051,0.8388 -0.072,0.2736 -0.197,0.5304 -0.368,0.7557 -0.171,0.2254 -0.384,0.4148 -0.629,0.5575 z"
       fill="#dddddd"
       stroke="#0f0f24"
       id="path22" />
    <path
       d="M 322.854,85.6069 282.54,109.169 c -0.245,0.143 -0.515,0.236 -0.795,0.274 -0.28,0.039 -0.565,0.022 -0.839,-0.05 -0.273,-0.072 -0.53,-0.197 -0.755,-0.368 -0.226,-0.171 -0.415,-0.384 -0.558,-0.629 -0.143,-0.244 -0.236,-0.514 -0.274,-0.794 -0.039,-0.28 -0.021,-0.565 0.05,-0.839 0.072,-0.274 0.197,-0.53 0.368,-0.756 0.171,-0.225 0.385,-0.414 0.629,-0.557 L 320.68,81.8877 c 0.493,-0.2882 1.081,-0.3688 1.633,-0.2239 0.553,0.145 1.025,0.5034 1.313,0.9966 0.289,0.4932 0.369,1.0807 0.224,1.6333 -0.145,0.5526 -0.503,1.0249 -0.996,1.3132 z"
       fill="#dddddd"
       stroke="#0f0f24"
       id="path24" />
    <path
       d="m 371.695,137.449 -121.493,71.008 c -0.493,0.289 -1.08,0.369 -1.633,0.224 -0.553,-0.145 -1.025,-0.503 -1.313,-0.996 -0.288,-0.494 -0.369,-1.081 -0.224,-1.634 0.145,-0.552 0.503,-1.025 0.996,-1.313 L 369.521,133.73 c 0.493,-0.288 1.081,-0.369 1.633,-0.224 0.553,0.145 1.025,0.504 1.313,0.997 0.289,0.493 0.369,1.081 0.224,1.633 -0.145,0.553 -0.503,1.025 -0.996,1.313 z"
       fill="#dddddd"
       stroke="#0f0f24"
       id="path26" />
    <path
       d="m 349.842,167.408 -92.153,53.859 c -0.244,0.143 -0.514,0.236 -0.794,0.275 -0.28,0.038 -0.565,0.021 -0.839,-0.051 -0.273,-0.071 -0.53,-0.196 -0.755,-0.367 -0.226,-0.171 -0.415,-0.385 -0.558,-0.629 -0.143,-0.244 -0.236,-0.514 -0.274,-0.795 -0.039,-0.28 -0.022,-0.565 0.05,-0.839 0.072,-0.273 0.197,-0.53 0.368,-0.755 0.171,-0.226 0.385,-0.415 0.629,-0.558 l 92.152,-53.86 c 0.244,-0.142 0.514,-0.235 0.795,-0.274 0.28,-0.038 0.565,-0.021 0.838,0.051 0.274,0.071 0.531,0.196 0.756,0.367 0.225,0.171 0.415,0.385 0.558,0.629 0.142,0.244 0.236,0.514 0.274,0.795 0.038,0.28 0.021,0.565 -0.051,0.838 -0.071,0.274 -0.196,0.531 -0.367,0.756 -0.171,0.225 -0.385,0.415 -0.629,0.558 z"
       fill="#dddddd"
       stroke="#0f0f24"
       id="path28" />
    <path
       d="m 386.669,163.07 -121.492,71.008 c -0.244,0.143 -0.514,0.236 -0.795,0.274 -0.28,0.039 -0.565,0.022 -0.838,-0.05 -0.274,-0.072 -0.531,-0.197 -0.756,-0.368 -0.225,-0.171 -0.415,-0.385 -0.558,-0.629 -0.142,-0.244 -0.236,-0.514 -0.274,-0.794 -0.038,-0.28 -0.021,-0.565 0.05,-0.839 0.072,-0.274 0.197,-0.53 0.368,-0.756 0.171,-0.225 0.385,-0.414 0.629,-0.557 l 121.493,-71.008 c 0.244,-0.143 0.514,-0.236 0.794,-0.275 0.28,-0.038 0.565,-0.021 0.839,0.051 0.273,0.072 0.53,0.197 0.755,0.368 0.226,0.171 0.415,0.384 0.558,0.629 0.143,0.244 0.236,0.514 0.274,0.794 0.039,0.28 0.022,0.565 -0.05,0.839 -0.072,0.273 -0.197,0.53 -0.368,0.756 -0.171,0.225 -0.385,0.414 -0.629,0.557 z"
       fill="#dddddd"
       stroke="#0f0f24"
       id="path30" />
    <path
       d="m 394.157,175.881 -121.493,71.008 c -0.244,0.142 -0.514,0.235 -0.794,0.274 -0.281,0.038 -0.566,0.021 -0.839,-0.051 -0.274,-0.071 -0.531,-0.196 -0.756,-0.367 -0.225,-0.171 -0.415,-0.385 -0.557,-0.629 -0.143,-0.244 -0.236,-0.514 -0.275,-0.795 -0.038,-0.28 -0.021,-0.565 0.051,-0.838 0.072,-0.274 0.196,-0.531 0.367,-0.756 0.171,-0.225 0.385,-0.415 0.629,-0.558 l 121.493,-71.008 c 0.244,-0.142 0.514,-0.236 0.794,-0.274 0.28,-0.038 0.565,-0.021 0.839,0.051 0.274,0.071 0.53,0.196 0.756,0.367 0.225,0.171 0.414,0.385 0.557,0.629 0.143,0.244 0.236,0.514 0.275,0.794 0.038,0.281 0.021,0.566 -0.051,0.839 -0.072,0.274 -0.197,0.531 -0.368,0.756 -0.171,0.225 -0.384,0.415 -0.628,0.558 z"
       fill="#dddddd"
       stroke="#0f0f24"
       id="path32" />
    <path
       d="m 354.868,225.75 c 1.688,-1.988 3.207,-4.113 4.542,-6.353 1.198,-2.021 2.372,-4.181 2.636,-6.552 0.135,-1.009 0.03,-2.036 -0.307,-2.997 -0.337,-0.961 -0.895,-1.829 -1.631,-2.533 -0.71,-0.655 -1.611,-1.067 -2.572,-1.176 -0.96,-0.109 -1.93,0.09 -2.77,0.569 -0.85,0.488 -1.552,1.196 -2.032,2.05 -0.48,0.854 -0.72,1.822 -0.695,2.801 0.069,1.079 0.381,2.128 0.912,3.069 0.531,0.941 1.267,1.75 2.154,2.367 3.591,2.601 9.2,2.465 13.027,0.486 4.311,-2.23 6.539,-8.065 3.152,-12.059 -0.705,-0.831 -1.877,0.098 -1.701,0.994 0.224,1.21 0.902,2.289 1.895,3.017 0.992,0.728 2.226,1.049 3.447,0.898 1.222,-0.151 2.34,-0.763 3.126,-1.71 0.785,-0.948 1.18,-2.159 1.102,-3.388 l -1.522,0.89 c 1.866,0.827 3.918,1.147 5.948,0.93 2.03,-0.218 3.967,-0.967 5.615,-2.171 0.816,-0.592 1.544,-1.296 2.164,-2.091 0.746,-0.972 1.998,-1.601 3.011,-2.301 l 7.306,-5.048 c 1.074,-0.742 0.052,-2.512 -1.031,-1.763 l -6.616,4.572 c -1.103,0.761 -2.212,1.514 -3.308,2.285 -0.784,0.552 -1.266,1.442 -1.978,2.097 -1.35,1.214 -3.017,2.019 -4.806,2.322 -1.79,0.303 -3.629,0.091 -5.303,-0.612 -0.156,-0.084 -0.331,-0.126 -0.508,-0.123 -0.177,0.003 -0.35,0.052 -0.503,0.141 -0.153,0.089 -0.28,0.216 -0.37,0.369 -0.089,0.153 -0.138,0.326 -0.142,0.503 0.081,0.733 -0.131,1.468 -0.59,2.045 -0.459,0.578 -1.127,0.95 -1.86,1.037 -0.732,0.087 -1.469,-0.119 -2.05,-0.573 -0.581,-0.454 -0.959,-1.12 -1.052,-1.851 l -1.701,0.993 c 2.185,2.577 0.73,6.529 -1.787,8.258 -2.815,1.933 -6.974,2.269 -10.148,1.067 -0.778,-0.268 -1.493,-0.694 -2.099,-1.25 -0.607,-0.557 -1.092,-1.232 -1.426,-1.985 -0.309,-0.679 -0.397,-1.439 -0.252,-2.172 0.145,-0.732 0.517,-1.401 1.062,-1.911 0.472,-0.467 1.108,-0.732 1.772,-0.739 0.664,-0.007 1.305,0.244 1.787,0.701 0.526,0.536 0.911,1.194 1.123,1.914 0.212,0.72 0.243,1.482 0.091,2.217 -0.327,2.046 -1.459,3.933 -2.511,5.681 -1.201,1.991 -2.56,3.884 -4.063,5.658 -0.843,0.998 0.611,2.434 1.462,1.427 z"
       fill="#5b5fd4"
       stroke="#0f0f24"
       id="path34" />
    <path
       d="m 444.933,200.779 -156.618,91.538 c -0.548,0.319 -1.2,0.408 -1.814,0.247 -0.614,-0.161 -1.139,-0.558 -1.46,-1.106 L 184.326,119.137 c -0.32,-0.548 -0.409,-1.2 -0.248,-1.814 0.161,-0.614 0.559,-1.139 1.107,-1.459 L 341.802,24.326 c 0.549,-0.3195 1.201,-0.4086 1.815,-0.2476 0.614,0.1609 1.138,0.5588 1.459,1.1062 L 445.792,197.505 c 0.319,0.549 0.408,1.201 0.247,1.815 -0.161,0.614 -0.559,1.138 -1.106,1.459 z"
       fill="#ffffff"
       id="path36" />
    <path
       d="m 444.933,200.779 -156.618,91.538 c -0.548,0.319 -1.2,0.408 -1.814,0.247 -0.614,-0.161 -1.139,-0.558 -1.46,-1.106 L 184.326,119.137 c -0.32,-0.548 -0.409,-1.2 -0.248,-1.814 0.161,-0.614 0.559,-1.139 1.107,-1.459 L 341.802,24.326 c 0.549,-0.3195 1.201,-0.4086 1.815,-0.2476 0.614,0.1609 1.138,0.5588 1.459,1.1062 L 445.792,197.505 c 0.319,0.549 0.408,1.201 0.247,1.815 -0.161,0.614 -0.559,1.138 -1.106,1.459 z M 185.668,116.69 c -0.329,0.192 -0.568,0.507 -0.664,0.876 -0.097,0.368 -0.043,0.759 0.149,1.088 l 100.715,172.321 c 0.192,0.329 0.507,0.567 0.876,0.664 0.368,0.096 0.759,0.043 1.088,-0.149 L 444.45,199.953 c 0.329,-0.193 0.567,-0.508 0.664,-0.876 0.096,-0.368 0.043,-0.76 -0.149,-1.089 L 344.25,25.6676 c -0.193,-0.3284 -0.508,-0.5672 -0.876,-0.6637 -0.368,-0.0966 -0.76,-0.0432 -1.089,0.1486 z"
       fill="#0f0f24"
       stroke="#000000"
       id="path38" />
    <path
       d="m 286.342,133.851 -38.845,22.703 c -0.548,0.32 -1.2,0.409 -1.814,0.248 -0.614,-0.161 -1.139,-0.559 -1.459,-1.107 L 221.52,116.851 c -0.319,-0.548 -0.408,-1.201 -0.247,-1.815 0.161,-0.613 0.559,-1.138 1.106,-1.459 l 38.844,-22.7031 c 0.549,-0.3196 1.201,-0.4086 1.815,-0.2477 0.614,0.161 1.138,0.5588 1.459,1.1063 L 287.2,130.577 c 0.32,0.548 0.409,1.201 0.248,1.814 -0.161,0.614 -0.559,1.139 -1.106,1.46 z m -63.48,-19.447 c -0.328,0.192 -0.567,0.507 -0.664,0.875 -0.096,0.368 -0.043,0.76 0.149,1.089 l 22.703,38.844 c 0.193,0.329 0.507,0.568 0.876,0.664 0.368,0.097 0.759,0.043 1.088,-0.148 l 38.845,-22.704 c 0.328,-0.192 0.567,-0.507 0.664,-0.875 0.096,-0.369 0.043,-0.76 -0.149,-1.089 L 263.671,92.2155 c -0.193,-0.3285 -0.508,-0.5672 -0.876,-0.6638 -0.368,-0.0965 -0.76,-0.0431 -1.088,0.1487 z"
       fill="#f2f2f2"
       id="path40" />
    <path
       d="m 277.962,145.124 -38.845,22.703 c -0.493,0.288 -1.08,0.368 -1.633,0.223 -0.552,-0.145 -1.024,-0.503 -1.313,-0.995 L 213.468,128.21 c -0.288,-0.493 -0.368,-1.081 -0.223,-1.633 0.145,-0.552 0.503,-1.025 0.995,-1.313 l 38.845,-22.704 c 0.493,-0.287 1.081,-0.367 1.633,-0.222 0.552,0.144 1.025,0.502 1.313,0.995 l 22.704,38.845 c 0.287,0.493 0.367,1.08 0.223,1.633 -0.145,0.552 -0.503,1.024 -0.996,1.313 z"
       fill="#5b5fd4"
       id="path42" />
    <path
       d="m 371.72,115.828 -121.492,71.008 c -0.494,0.288 -1.081,0.369 -1.634,0.224 -0.552,-0.145 -1.025,-0.503 -1.313,-0.997 -0.288,-0.493 -0.369,-1.08 -0.224,-1.633 0.145,-0.552 0.504,-1.025 0.997,-1.313 l 121.492,-71.008 c 0.244,-0.143 0.514,-0.236 0.795,-0.274 0.28,-0.039 0.565,-0.022 0.839,0.05 0.273,0.072 0.53,0.197 0.755,0.368 0.226,0.171 0.415,0.385 0.558,0.629 0.142,0.244 0.236,0.514 0.274,0.794 0.038,0.28 0.021,0.565 -0.05,0.839 -0.072,0.274 -0.197,0.53 -0.368,0.756 -0.171,0.225 -0.385,0.414 -0.629,0.557 z"
       fill="#cccccc"
       id="path44" />
    <path
       d="m 349.867,145.787 -92.152,53.86 c -0.244,0.142 -0.514,0.236 -0.794,0.274 -0.281,0.038 -0.566,0.021 -0.839,-0.05 -0.553,-0.145 -1.025,-0.504 -1.314,-0.997 -0.288,-0.493 -0.368,-1.081 -0.223,-1.633 0.144,-0.553 0.503,-1.025 0.996,-1.313 l 92.153,-53.86 c 0.244,-0.143 0.514,-0.236 0.794,-0.275 0.28,-0.038 0.565,-0.021 0.839,0.051 0.273,0.072 0.53,0.197 0.756,0.368 0.225,0.171 0.414,0.384 0.557,0.628 0.143,0.245 0.236,0.515 0.274,0.795 0.039,0.28 0.022,0.565 -0.05,0.839 -0.072,0.273 -0.197,0.53 -0.368,0.755 -0.171,0.226 -0.385,0.415 -0.629,0.558 z"
       fill="#cccccc"
       id="path46" />
    <path
       d="m 343.773,68.9606 -53.721,31.3984 c -0.493,0.288 -1.08,0.369 -1.633,0.224 -0.553,-0.145 -1.025,-0.504 -1.313,-0.997 -0.288,-0.4932 -0.369,-1.0807 -0.224,-1.6333 0.145,-0.5525 0.503,-1.0249 0.997,-1.3131 L 341.6,65.2415 c 0.493,-0.2883 1.08,-0.3688 1.633,-0.2239 0.274,0.0718 0.53,0.1967 0.756,0.3677 0.225,0.171 0.414,0.3847 0.557,0.6289 0.143,0.2442 0.236,0.5141 0.275,0.7944 0.038,0.2802 0.021,0.5652 -0.051,0.8388 -0.072,0.2736 -0.197,0.5304 -0.368,0.7557 -0.171,0.2254 -0.384,0.4148 -0.629,0.5575 z"
       fill="#cccccc"
       id="path48" />
    <path
       d="M 337.854,89.6069 297.54,113.169 c -0.245,0.143 -0.515,0.236 -0.795,0.274 -0.28,0.039 -0.565,0.022 -0.839,-0.05 -0.273,-0.072 -0.53,-0.197 -0.755,-0.368 -0.226,-0.171 -0.415,-0.384 -0.558,-0.629 -0.143,-0.244 -0.236,-0.514 -0.274,-0.794 -0.039,-0.28 -0.021,-0.565 0.05,-0.839 0.072,-0.274 0.197,-0.53 0.368,-0.756 0.171,-0.225 0.385,-0.414 0.629,-0.557 L 335.68,85.8877 c 0.493,-0.2882 1.081,-0.3688 1.633,-0.2239 0.553,0.145 1.025,0.5034 1.313,0.9966 0.289,0.4932 0.369,1.0807 0.224,1.6333 -0.145,0.5526 -0.503,1.0249 -0.996,1.3132 z"
       fill="#cccccc"
       id="path50" />
    <path
       d="m 386.695,141.449 -121.493,71.008 c -0.493,0.289 -1.08,0.369 -1.633,0.224 -0.553,-0.145 -1.025,-0.503 -1.313,-0.996 -0.288,-0.494 -0.369,-1.081 -0.224,-1.634 0.145,-0.552 0.503,-1.025 0.996,-1.313 L 384.521,137.73 c 0.493,-0.288 1.081,-0.369 1.633,-0.224 0.553,0.145 1.025,0.504 1.313,0.997 0.289,0.493 0.369,1.081 0.224,1.633 -0.145,0.553 -0.503,1.025 -0.996,1.313 z"
       fill="#cccccc"
       id="path52" />
    <path
       d="m 364.842,171.408 -92.153,53.859 c -0.244,0.143 -0.514,0.236 -0.794,0.275 -0.28,0.038 -0.565,0.021 -0.839,-0.051 -0.273,-0.071 -0.53,-0.196 -0.755,-0.367 -0.226,-0.171 -0.415,-0.385 -0.558,-0.629 -0.143,-0.244 -0.236,-0.514 -0.274,-0.795 -0.039,-0.28 -0.022,-0.565 0.05,-0.839 0.072,-0.273 0.197,-0.53 0.368,-0.755 0.171,-0.226 0.385,-0.415 0.629,-0.558 l 92.152,-53.86 c 0.244,-0.142 0.514,-0.235 0.795,-0.274 0.28,-0.038 0.565,-0.021 0.838,0.051 0.274,0.071 0.531,0.196 0.756,0.367 0.225,0.171 0.415,0.385 0.558,0.629 0.142,0.244 0.236,0.514 0.274,0.795 0.038,0.28 0.021,0.565 -0.051,0.838 -0.071,0.274 -0.196,0.531 -0.367,0.756 -0.171,0.225 -0.385,0.415 -0.629,0.558 z"
       fill="#cccccc"
       id="path54" />
    <path
       d="m 401.669,167.07 -121.492,71.008 c -0.244,0.143 -0.514,0.236 -0.795,0.274 -0.28,0.039 -0.565,0.022 -0.838,-0.05 -0.274,-0.072 -0.531,-0.197 -0.756,-0.368 -0.225,-0.171 -0.415,-0.385 -0.558,-0.629 -0.142,-0.244 -0.236,-0.514 -0.274,-0.794 -0.038,-0.28 -0.021,-0.565 0.05,-0.839 0.072,-0.274 0.197,-0.53 0.368,-0.756 0.171,-0.225 0.385,-0.414 0.629,-0.557 l 121.493,-71.008 c 0.244,-0.143 0.514,-0.236 0.794,-0.275 0.28,-0.038 0.565,-0.021 0.839,0.051 0.273,0.072 0.53,0.197 0.755,0.368 0.226,0.171 0.415,0.384 0.558,0.629 0.143,0.244 0.236,0.514 0.274,0.794 0.039,0.28 0.022,0.565 -0.05,0.839 -0.072,0.273 -0.197,0.53 -0.368,0.756 -0.171,0.225 -0.385,0.414 -0.629,0.557 z"
       fill="#cccccc"
       id="path56" />
    <path
       d="m 409.157,179.881 -121.493,71.008 c -0.244,0.142 -0.514,0.235 -0.794,0.274 -0.281,0.038 -0.566,0.021 -0.839,-0.051 -0.274,-0.071 -0.531,-0.196 -0.756,-0.367 -0.225,-0.171 -0.415,-0.385 -0.557,-0.629 -0.143,-0.244 -0.236,-0.514 -0.275,-0.795 -0.038,-0.28 -0.021,-0.565 0.051,-0.838 0.072,-0.274 0.196,-0.531 0.367,-0.756 0.171,-0.225 0.385,-0.415 0.629,-0.558 l 121.493,-71.008 c 0.244,-0.142 0.514,-0.236 0.794,-0.274 0.28,-0.038 0.565,-0.021 0.839,0.051 0.274,0.071 0.53,0.196 0.756,0.367 0.225,0.171 0.414,0.385 0.557,0.629 0.143,0.244 0.236,0.514 0.275,0.794 0.038,0.281 0.021,0.566 -0.051,0.839 -0.072,0.274 -0.197,0.531 -0.368,0.756 -0.171,0.225 -0.384,0.415 -0.628,0.558 z"
       fill="#cccccc"
       id="path58" />
    <path
       d="m 369.868,229.75 c 1.688,-1.988 3.207,-4.113 4.542,-6.353 1.198,-2.021 2.372,-4.181 2.636,-6.552 0.135,-1.009 0.03,-2.036 -0.307,-2.997 -0.337,-0.961 -0.895,-1.829 -1.631,-2.533 -0.71,-0.655 -1.611,-1.067 -2.572,-1.176 -0.96,-0.109 -1.93,0.09 -2.77,0.569 -0.85,0.488 -1.552,1.196 -2.032,2.05 -0.48,0.854 -0.72,1.822 -0.695,2.801 0.069,1.079 0.381,2.128 0.912,3.069 0.531,0.941 1.267,1.75 2.154,2.367 3.591,2.601 9.2,2.465 13.027,0.486 4.311,-2.23 6.539,-8.065 3.152,-12.059 -0.705,-0.831 -1.877,0.098 -1.701,0.994 0.224,1.21 0.902,2.289 1.895,3.017 0.992,0.728 2.226,1.049 3.447,0.898 1.222,-0.151 2.34,-0.763 3.126,-1.71 0.785,-0.948 1.18,-2.159 1.102,-3.388 l -1.522,0.89 c 1.866,0.827 3.918,1.147 5.948,0.93 2.03,-0.218 3.967,-0.967 5.615,-2.171 0.816,-0.592 1.544,-1.296 2.164,-2.091 0.746,-0.972 1.998,-1.601 3.011,-2.301 l 7.306,-5.048 c 1.074,-0.742 0.052,-2.512 -1.031,-1.763 l -6.616,4.572 c -1.103,0.761 -2.212,1.514 -3.308,2.285 -0.784,0.552 -1.266,1.442 -1.978,2.097 -1.35,1.214 -3.017,2.019 -4.806,2.322 -1.79,0.303 -3.629,0.091 -5.303,-0.612 -0.156,-0.084 -0.331,-0.126 -0.508,-0.123 -0.177,0.003 -0.35,0.052 -0.503,0.141 -0.153,0.089 -0.28,0.216 -0.37,0.369 -0.089,0.153 -0.138,0.326 -0.142,0.503 0.081,0.733 -0.131,1.468 -0.59,2.045 -0.459,0.578 -1.127,0.95 -1.86,1.037 -0.732,0.087 -1.469,-0.119 -2.05,-0.573 -0.581,-0.454 -0.959,-1.12 -1.052,-1.851 l -1.701,0.993 c 2.185,2.577 0.73,6.529 -1.787,8.258 -2.815,1.933 -6.974,2.269 -10.148,1.067 -0.778,-0.268 -1.493,-0.694 -2.099,-1.25 -0.607,-0.557 -1.092,-1.232 -1.426,-1.985 -0.309,-0.679 -0.397,-1.439 -0.252,-2.172 0.145,-0.732 0.517,-1.401 1.062,-1.911 0.472,-0.467 1.108,-0.732 1.772,-0.739 0.664,-0.007 1.305,0.244 1.787,0.701 0.526,0.536 0.911,1.194 1.123,1.914 0.212,0.72 0.243,1.482 0.091,2.217 -0.327,2.046 -1.459,3.933 -2.511,5.681 -1.201,1.991 -2.56,3.884 -4.063,5.658 -0.843,0.998 0.611,2.434 1.462,1.427 z"
       fill="#5b5fd4"
       id="path60" />
  </g>
  <defs
     id="defs67">
    <clipPath
       id="clip0">
      <rect
         width="1440"
         height="4380"
         fill="#ffffff"
         transform="translate(-100,-874)"
         id="rect64"
         x="0"
         y="0" />
    </clipPath>
  </defs>
</svg>
