<svg width="27" height="26" viewBox="0 0 27 26" fill="none" xmlns="http://www.w3.org/2000/svg">
<path d="M13.4997 18.4163C16.4912 18.4163 18.9163 15.9912 18.9163 12.9997C18.9163 10.0081 16.4912 7.58301 13.4997 7.58301C10.5081 7.58301 8.08301 10.0081 8.08301 12.9997C8.08301 15.9912 10.5081 18.4163 13.4997 18.4163Z" stroke="white" stroke-width="2" stroke-linecap="round" stroke-linejoin="round"/>
<path d="M12.5 4.33366C12.5 4.88594 12.9477 5.33366 13.5 5.33366C14.0523 5.33366 14.5 4.88594 14.5 4.33366H12.5ZM14.5 2.16699C14.5 1.61471 14.0523 1.16699 13.5 1.16699C12.9477 1.16699 12.5 1.61471 12.5 2.16699H14.5ZM14.5 21.667C14.5 21.1147 14.0523 20.667 13.5 20.667C12.9477 20.667 12.5 21.1147 12.5 21.667H14.5ZM12.5 23.8337C12.5 24.3859 12.9477 24.8337 13.5 24.8337C14.0523 24.8337 14.5 24.3859 14.5 23.8337H12.5ZM14.5 4.33366V2.16699H12.5V4.33366H14.5ZM12.5 21.667V23.8337H14.5V21.667H12.5Z" fill="white"/>
<path d="M6.74195 7.65616C7.13247 8.04669 7.76564 8.04669 8.15616 7.65616C8.54669 7.26564 8.54669 6.63247 8.15616 6.24195L6.74195 7.65616ZM6.6241 4.70989C6.23357 4.31936 5.60041 4.31936 5.20989 4.70989C4.81936 5.10041 4.81936 5.73357 5.20989 6.1241L6.6241 4.70989ZM20.4127 18.4985C20.0222 18.1079 19.389 18.1079 18.9985 18.4985C18.6079 18.889 18.6079 19.5222 18.9985 19.9127L20.4127 18.4985ZM20.5305 21.4447C20.9211 21.8353 21.5542 21.8353 21.9447 21.4447C22.3353 21.0542 22.3353 20.4211 21.9447 20.0305L20.5305 21.4447ZM8.15616 6.24195L6.6241 4.70989L5.20989 6.1241L6.74195 7.65616L8.15616 6.24195ZM18.9985 19.9127L20.5305 21.4447L21.9447 20.0305L20.4127 18.4985L18.9985 19.9127Z" fill="white"/>
<path d="M4.83366 14C5.38594 14 5.83366 13.5523 5.83366 13C5.83366 12.4477 5.38594 12 4.83366 12V14ZM2.66699 12C2.11471 12 1.66699 12.4477 1.66699 13C1.66699 13.5523 2.11471 14 2.66699 14V12ZM22.167 12C21.6147 12 21.167 12.4477 21.167 13C21.167 13.5523 21.6147 14 22.167 14V12ZM24.3337 14C24.8859 14 25.3337 13.5523 25.3337 13C25.3337 12.4477 24.8859 12 24.3337 12V14ZM4.83366 12H2.66699V14H4.83366V12ZM22.167 14H24.3337V12H22.167V14Z" fill="white"/>
<path d="M18.9985 6.24195C18.6079 6.63247 18.6079 7.26564 18.9985 7.65616C19.389 8.04669 20.0222 8.04669 20.4127 7.65616L18.9985 6.24195ZM21.9447 6.1241C22.3353 5.73357 22.3353 5.10041 21.9447 4.70989C21.5542 4.31936 20.9211 4.31936 20.5305 4.70989L21.9447 6.1241ZM8.15616 19.9127C8.54669 19.5222 8.54669 18.889 8.15616 18.4985C7.76564 18.1079 7.13247 18.1079 6.74195 18.4985L8.15616 19.9127ZM5.20989 20.0305C4.81936 20.4211 4.81936 21.0542 5.20989 21.4447C5.60041 21.8353 6.23357 21.8353 6.6241 21.4447L5.20989 20.0305ZM20.4127 7.65616L21.9447 6.1241L20.5305 4.70989L18.9985 6.24195L20.4127 7.65616ZM6.74195 18.4985L5.20989 20.0305L6.6241 21.4447L8.15616 19.9127L6.74195 18.4985Z" fill="white"/>
</svg>
